<mxfile host="app.diagrams.net" modified="2024-04-09T14:49:46.519Z" agent="Mozilla/5.0 (Macintosh; Intel Mac OS X 10_15_7) AppleWebKit/537.36 (KHTML, like Gecko) Chrome/123.0.0.0 Safari/537.36" etag="iXGZEftolpXePZAr2GxX" version="24.2.3" type="github">
  <diagram name="Page-1" id="YCtIPQoO9qwr8x44oI0j">
    <mxGraphModel dx="1242" dy="792" grid="1" gridSize="10" guides="1" tooltips="1" connect="1" arrows="1" fold="1" page="1" pageScale="1" pageWidth="850" pageHeight="1100" math="0" shadow="0">
      <root>
        <mxCell id="0" />
        <mxCell id="1" parent="0" />
        <mxCell id="vcEwr_SxlwSUHxUCg2gN-2" value="" style="rounded=0;whiteSpace=wrap;html=1;fillColor=default;" vertex="1" parent="1">
          <mxGeometry x="60" y="80" width="750" height="660" as="geometry" />
        </mxCell>
        <mxCell id="vcEwr_SxlwSUHxUCg2gN-3" value="" style="endArrow=none;html=1;rounded=0;entryX=0.25;entryY=0;entryDx=0;entryDy=0;exitX=0.25;exitY=1;exitDx=0;exitDy=0;" edge="1" parent="1" source="vcEwr_SxlwSUHxUCg2gN-2" target="vcEwr_SxlwSUHxUCg2gN-2">
          <mxGeometry width="50" height="50" relative="1" as="geometry">
            <mxPoint x="170" y="260" as="sourcePoint" />
            <mxPoint x="220" y="210" as="targetPoint" />
          </mxGeometry>
        </mxCell>
        <mxCell id="vcEwr_SxlwSUHxUCg2gN-4" value="Folder Icon" style="rounded=1;whiteSpace=wrap;html=1;" vertex="1" parent="1">
          <mxGeometry x="70" y="160" width="170" height="60" as="geometry" />
        </mxCell>
        <mxCell id="vcEwr_SxlwSUHxUCg2gN-5" value="Folder Creator" style="rounded=1;whiteSpace=wrap;html=1;fillColor=#d5e8d4;strokeColor=#82b366;" vertex="1" parent="1">
          <mxGeometry x="70" y="270" width="170" height="60" as="geometry" />
        </mxCell>
        <mxCell id="vcEwr_SxlwSUHxUCg2gN-6" value="" style="whiteSpace=wrap;html=1;aspect=fixed;" vertex="1" parent="1">
          <mxGeometry x="360" y="130" width="260" height="260" as="geometry" />
        </mxCell>
        <mxCell id="vcEwr_SxlwSUHxUCg2gN-7" value="" style="verticalLabelPosition=bottom;verticalAlign=top;html=1;shadow=0;dashed=0;strokeWidth=1;strokeColor=none;shape=rect;fillColor=#33b5e5;" vertex="1" parent="1">
          <mxGeometry x="320" y="460" width="50" height="50" as="geometry" />
        </mxCell>
        <mxCell id="vcEwr_SxlwSUHxUCg2gN-9" value="" style="verticalLabelPosition=bottom;verticalAlign=top;html=1;shadow=0;dashed=0;strokeWidth=1;strokeColor=none;shape=rect;fillColor=#9933cc;" vertex="1" parent="1">
          <mxGeometry x="390" y="460" width="50" height="50" as="geometry" />
        </mxCell>
        <mxCell id="vcEwr_SxlwSUHxUCg2gN-10" value="" style="verticalLabelPosition=bottom;verticalAlign=top;html=1;shadow=0;dashed=0;strokeWidth=1;strokeColor=none;shape=rect;fillColor=#99cc00;" vertex="1" parent="1">
          <mxGeometry x="450" y="460" width="50" height="50" as="geometry" />
        </mxCell>
        <mxCell id="vcEwr_SxlwSUHxUCg2gN-11" value="" style="verticalLabelPosition=bottom;verticalAlign=top;html=1;shadow=0;dashed=0;strokeWidth=1;strokeColor=none;shape=rect;fillColor=#ffbb33;" vertex="1" parent="1">
          <mxGeometry x="514" y="460" width="50" height="50" as="geometry" />
        </mxCell>
        <mxCell id="vcEwr_SxlwSUHxUCg2gN-12" value="" style="verticalLabelPosition=bottom;verticalAlign=top;html=1;shadow=0;dashed=0;strokeWidth=1;strokeColor=none;shape=rect;fillColor=#cc0000;" vertex="1" parent="1">
          <mxGeometry x="580" y="460" width="50" height="50" as="geometry" />
        </mxCell>
        <mxCell id="vcEwr_SxlwSUHxUCg2gN-14" value="Color:" style="text;html=1;align=center;verticalAlign=middle;whiteSpace=wrap;rounded=0;" vertex="1" parent="1">
          <mxGeometry x="270" y="420" width="60" height="30" as="geometry" />
        </mxCell>
        <mxCell id="vcEwr_SxlwSUHxUCg2gN-15" value="Symbol" style="text;html=1;align=center;verticalAlign=middle;whiteSpace=wrap;rounded=0;" vertex="1" parent="1">
          <mxGeometry x="270" y="540" width="60" height="30" as="geometry" />
        </mxCell>
        <mxCell id="vcEwr_SxlwSUHxUCg2gN-16" value="Text:" style="text;html=1;align=center;verticalAlign=middle;whiteSpace=wrap;rounded=0;" vertex="1" parent="1">
          <mxGeometry x="270" y="610" width="60" height="30" as="geometry" />
        </mxCell>
        <mxCell id="vcEwr_SxlwSUHxUCg2gN-17" value="Save (10)" style="html=1;shadow=0;dashed=0;shape=mxgraph.bootstrap.rrect;rSize=5;strokeColor=none;strokeWidth=1;fillColor=#0085FC;fontColor=#FFFFFF;whiteSpace=wrap;align=center;verticalAlign=middle;spacingLeft=0;fontStyle=0;fontSize=16;spacing=5;" vertex="1" parent="1">
          <mxGeometry x="580" y="690" width="150" height="40" as="geometry" />
        </mxCell>
        <mxCell id="vcEwr_SxlwSUHxUCg2gN-18" value="Restore" style="html=1;shadow=0;dashed=0;shape=mxgraph.bootstrap.rrect;rSize=5;strokeColor=none;strokeWidth=1;fillColor=#6C767D;fontColor=#FFFFFF;whiteSpace=wrap;align=center;verticalAlign=middle;spacingLeft=0;fontStyle=0;fontSize=16;spacing=5;" vertex="1" parent="1">
          <mxGeometry x="425" y="690" width="100" height="40" as="geometry" />
        </mxCell>
      </root>
    </mxGraphModel>
  </diagram>
</mxfile>
